<svg xmlns="http://www.w3.org/2000/svg" xmlns:xlink="http://www.w3.org/1999/xlink" width="400" zoomAndPan="magnify" viewBox="0 0 300 149.999998" height="200" preserveAspectRatio="xMidYMid meet" version="1.0"><defs><g/><clipPath id="f6896528ad"><path d="M 13 9.351562 L 78 9.351562 L 78 69 L 13 69 Z M 13 9.351562 " clip-rule="nonzero"/></clipPath></defs><g clip-path="url(#f6896528ad)"><path fill="#38b6ff" d="M 61.910156 33.730469 L 40.847656 28.085938 L 31.785156 37.152344 L 59.039062 44.453125 L 56.160156 55.175781 L 22.71875 46.214844 L 13.65625 55.28125 L 64.015625 68.773438 L 77.503906 18.417969 L 68.441406 9.351562 Z M 61.910156 33.730469 " fill-opacity="1" fill-rule="evenodd"/></g><path fill="#38b6ff" d="M 70.042969 110.613281 L 91.105469 116.253906 L 100.164062 107.191406 L 72.914062 99.890625 L 75.785156 89.167969 L 109.230469 98.128906 L 118.292969 89.0625 L 67.9375 75.570312 L 54.445312 125.925781 L 63.507812 134.992188 Z M 70.042969 110.613281 " fill-opacity="1" fill-rule="evenodd"/><path fill="#004aad" d="M 62.578125 74.132812 L 9.125 59.8125 L 0.0585938 68.875 L 27.535156 76.238281 L 22.71875 94.203125 L 31.785156 103.269531 L 38.257812 79.113281 L 48.980469 81.984375 L 40.847656 112.332031 L 49.910156 121.394531 Z M 62.578125 74.132812 " fill-opacity="1" fill-rule="evenodd"/><path fill="#004aad" d="M 69.375 70.210938 L 122.824219 84.53125 L 131.890625 75.46875 L 104.414062 68.105469 L 109.230469 50.136719 L 100.164062 41.078125 L 93.691406 65.234375 L 82.972656 62.359375 L 91.105469 32.011719 L 91.101562 32.011719 L 82.039062 22.949219 Z M 69.375 70.210938 " fill-opacity="1" fill-rule="evenodd"/><g fill="#ffffff" fill-opacity="1"><g transform="translate(146.691248, 72.426521)"><g><path d="M 17.96875 -26.21875 L 17.96875 -23.03125 L 17.578125 -23.03125 L 17.578125 -23.59375 C 17.578125 -24.101562 17.398438 -24.539062 17.046875 -24.90625 C 16.691406 -25.28125 16.25 -25.46875 15.71875 -25.46875 L 7.6875 -25.46875 L 7.6875 -13.703125 L 14.125 -13.703125 C 14.625 -13.722656 15.050781 -13.910156 15.40625 -14.265625 C 15.769531 -14.628906 15.953125 -15.0625 15.953125 -15.5625 L 15.953125 -16.140625 L 16.328125 -16.140625 L 16.328125 -10.125 L 15.953125 -10.125 L 15.953125 -10.703125 C 15.953125 -11.203125 15.78125 -11.628906 15.4375 -11.984375 C 15.09375 -12.335938 14.664062 -12.53125 14.15625 -12.5625 L 7.6875 -12.5625 L 7.6875 -2.78125 C 7.6875 -2.113281 7.925781 -1.546875 8.40625 -1.078125 C 8.894531 -0.609375 9.46875 -0.375 10.125 -0.375 L 10.625 -0.375 L 10.625 0 L 2.28125 0 L 2.28125 -0.375 L 2.78125 -0.375 C 3.4375 -0.375 4 -0.609375 4.46875 -1.078125 C 4.9375 -1.546875 5.1875 -2.113281 5.21875 -2.78125 L 5.21875 -24.09375 C 5.21875 -24.695312 4.96875 -25.207031 4.46875 -25.625 C 3.976562 -26.050781 3.414062 -26.265625 2.78125 -26.265625 L 2.328125 -26.265625 L 2.28125 -26.640625 L 13.4375 -26.640625 C 14.21875 -26.640625 15.070312 -26.710938 16 -26.859375 C 16.925781 -27.015625 17.582031 -27.171875 17.96875 -27.328125 Z M 17.96875 -26.21875 "/></g></g></g><g fill="#ffffff" fill-opacity="1"><g transform="translate(167.286224, 72.426521)"><g><path d="M 8.296875 -21.859375 C 10.253906 -22.867188 12.40625 -23.375 14.75 -23.375 C 17.09375 -23.375 19.238281 -22.867188 21.1875 -21.859375 C 23.144531 -20.859375 24.703125 -19.441406 25.859375 -17.609375 C 27.015625 -15.785156 27.59375 -13.71875 27.59375 -11.40625 C 27.59375 -9.101562 27.015625 -7.035156 25.859375 -5.203125 C 24.703125 -3.378906 23.144531 -1.96875 21.1875 -0.96875 C 19.238281 0.03125 17.238281 0.53125 15.1875 0.53125 C 13.132812 0.53125 11.320312 0.238281 9.75 -0.34375 C 8.175781 -0.925781 6.8125 -1.738281 5.65625 -2.78125 C 4.5 -3.820312 3.582031 -5.085938 2.90625 -6.578125 C 2.238281 -8.078125 1.90625 -9.832031 1.90625 -11.84375 C 1.90625 -13.863281 2.476562 -15.785156 3.625 -17.609375 C 4.78125 -19.441406 6.335938 -20.859375 8.296875 -21.859375 Z M 7.59375 -3.625 C 9.507812 -1.613281 11.890625 -0.609375 14.734375 -0.609375 C 17.578125 -0.609375 19.960938 -1.613281 21.890625 -3.625 C 23.816406 -5.644531 24.78125 -8.238281 24.78125 -11.40625 C 24.78125 -14.582031 23.816406 -17.179688 21.890625 -19.203125 C 19.960938 -21.222656 17.578125 -22.234375 14.734375 -22.234375 C 11.890625 -22.234375 9.507812 -21.222656 7.59375 -19.203125 C 5.675781 -17.179688 4.71875 -14.582031 4.71875 -11.40625 C 4.71875 -8.238281 5.675781 -5.644531 7.59375 -3.625 Z M 7.59375 -3.625 "/></g></g></g><g fill="#ffffff" fill-opacity="1"><g transform="translate(196.751123, 72.426521)"><g><path d="M 27.671875 -22.453125 C 27.109375 -22.453125 26.625 -22.269531 26.21875 -21.90625 C 25.8125 -21.539062 25.597656 -21.085938 25.578125 -20.546875 L 25.578125 -4.34375 C 25.578125 -2.863281 25.664062 -1.46875 25.84375 -0.15625 L 25.921875 0.53125 L 25.578125 0.53125 L 5.78125 -18.234375 L 5.78125 -2.359375 C 5.78125 -1.796875 5.984375 -1.320312 6.390625 -0.9375 C 6.796875 -0.5625 7.289062 -0.375 7.875 -0.375 L 8.53125 -0.375 L 8.53125 0 L 1.328125 0 L 1.328125 -0.375 L 1.984375 -0.375 C 2.566406 -0.375 3.0625 -0.5625 3.46875 -0.9375 C 3.875 -1.320312 4.078125 -1.796875 4.078125 -2.359375 L 4.078125 -18.65625 C 4.078125 -20.195312 3.988281 -21.578125 3.8125 -22.796875 L 3.734375 -23.40625 L 4.15625 -23.375 L 23.90625 -4.765625 L 23.90625 -20.546875 C 23.851562 -21.085938 23.625 -21.539062 23.21875 -21.90625 C 22.8125 -22.269531 22.328125 -22.453125 21.765625 -22.453125 L 21.125 -22.453125 L 21.125 -22.84375 L 28.3125 -22.84375 L 28.3125 -22.453125 Z M 27.671875 -22.453125 "/></g></g></g><g fill="#ffffff" fill-opacity="1"><g transform="translate(226.406369, 72.426521)"><g><path d="M 27.03125 -11.421875 C 27.03125 -7.890625 25.929688 -5.101562 23.734375 -3.0625 C 21.535156 -1.019531 18.5625 0 14.8125 0 L 2.09375 0 L 2.09375 -0.375 L 2.59375 -0.375 C 3.195312 -0.375 3.703125 -0.578125 4.109375 -0.984375 C 4.515625 -1.390625 4.734375 -1.875 4.765625 -2.4375 L 4.765625 -20.40625 C 4.734375 -21.007812 4.507812 -21.5 4.09375 -21.875 C 3.675781 -22.257812 3.160156 -22.453125 2.546875 -22.453125 L 2.09375 -22.453125 L 2.09375 -22.84375 L 14.8125 -22.84375 C 17.289062 -22.84375 19.453125 -22.382812 21.296875 -21.46875 C 23.140625 -20.550781 24.554688 -19.226562 25.546875 -17.5 C 26.535156 -15.78125 27.03125 -13.753906 27.03125 -11.421875 Z M 7.234375 -21.703125 L 7.234375 -1.140625 L 14.8125 -1.140625 C 17.726562 -1.140625 20.035156 -2.054688 21.734375 -3.890625 C 23.429688 -5.734375 24.28125 -8.242188 24.28125 -11.421875 C 24.28125 -14.585938 23.429688 -17.09375 21.734375 -18.9375 C 20.035156 -20.78125 17.726562 -21.703125 14.8125 -21.703125 Z M 7.234375 -21.703125 "/></g></g></g><g fill="#ffffff" fill-opacity="1"><g transform="translate(255.338319, 72.426521)"><g><path d="M 2.625 -0.375 C 3.238281 -0.375 3.753906 -0.570312 4.171875 -0.96875 C 4.585938 -1.363281 4.804688 -1.835938 4.828125 -2.390625 L 4.828125 -20.484375 C 4.828125 -21.035156 4.613281 -21.5 4.1875 -21.875 C 3.757812 -22.257812 3.238281 -22.453125 2.625 -22.453125 L 2.09375 -22.453125 L 2.09375 -22.84375 L 13.203125 -22.84375 C 14.242188 -22.84375 15.15625 -22.914062 15.9375 -23.0625 C 16.726562 -23.21875 17.238281 -23.347656 17.46875 -23.453125 L 17.46875 -19.109375 L 17.046875 -19.140625 L 17.046875 -19.71875 C 17.046875 -20.25 16.867188 -20.703125 16.515625 -21.078125 C 16.160156 -21.460938 15.707031 -21.65625 15.15625 -21.65625 L 7.234375 -21.65625 L 7.234375 -11.984375 L 13.734375 -11.984375 C 14.242188 -11.984375 14.628906 -12.132812 14.890625 -12.4375 C 15.160156 -12.75 15.296875 -13.132812 15.296875 -13.59375 L 15.296875 -14.078125 L 15.71875 -14.078125 L 15.71875 -8.75 L 15.296875 -8.75 L 15.296875 -9.25 C 15.296875 -9.957031 15.03125 -10.441406 14.5 -10.703125 C 14.300781 -10.773438 14.085938 -10.820312 13.859375 -10.84375 L 7.234375 -10.84375 L 7.234375 -1.1875 L 13.203125 -1.1875 C 14.367188 -1.1875 15.351562 -1.382812 16.15625 -1.78125 C 16.957031 -2.1875 17.566406 -2.671875 17.984375 -3.234375 C 18.398438 -3.796875 18.828125 -4.53125 19.265625 -5.4375 L 19.640625 -5.4375 L 17.546875 0 L 2.09375 0 L 2.09375 -0.375 Z M 2.625 -0.375 "/></g></g></g><g fill="#ffffff" fill-opacity="1"><g transform="translate(276.123641, 72.426521)"><g><path d="M 9.21875 -21.65625 L 7.1875 -21.65625 L 7.1875 -2.4375 C 7.21875 -1.644531 7.578125 -1.046875 8.265625 -0.640625 C 8.585938 -0.460938 8.953125 -0.375 9.359375 -0.375 L 9.859375 -0.375 L 9.890625 0 L 2.09375 0 L 2.09375 -0.375 L 2.625 -0.375 C 3.207031 -0.375 3.707031 -0.570312 4.125 -0.96875 C 4.550781 -1.363281 4.765625 -1.835938 4.765625 -2.390625 L 4.765625 -20.484375 C 4.765625 -21.035156 4.550781 -21.5 4.125 -21.875 C 3.707031 -22.257812 3.207031 -22.453125 2.625 -22.453125 L 2.09375 -22.453125 L 2.09375 -22.84375 L 11.640625 -22.84375 C 14.023438 -22.84375 15.910156 -22.296875 17.296875 -21.203125 C 18.679688 -20.109375 19.375 -18.671875 19.375 -16.890625 C 19.375 -15.117188 18.816406 -13.632812 17.703125 -12.4375 C 16.585938 -11.25 15.164062 -10.566406 13.4375 -10.390625 C 14.25 -10.035156 15.222656 -9.046875 16.359375 -7.421875 C 16.335938 -7.421875 16.773438 -6.863281 17.671875 -5.75 C 18.578125 -4.632812 19.300781 -3.765625 19.84375 -3.140625 C 20.394531 -2.515625 20.847656 -2.039062 21.203125 -1.71875 C 22.140625 -0.820312 23.21875 -0.375 24.4375 -0.375 L 24.4375 0 L 23.25 0 C 21.25 0 19.675781 -0.394531 18.53125 -1.1875 C 17.675781 -1.769531 16.890625 -2.488281 16.171875 -3.34375 C 16.023438 -3.550781 15.382812 -4.445312 14.25 -6.03125 C 13.125 -7.613281 12.523438 -8.457031 12.453125 -8.5625 C 11.078125 -10.257812 9.796875 -11.109375 8.609375 -11.109375 L 8.609375 -11.5 C 11.578125 -11.5 13.363281 -11.648438 13.96875 -11.953125 C 14.800781 -12.378906 15.375 -12.835938 15.6875 -13.328125 C 16.320312 -14.335938 16.640625 -15.453125 16.640625 -16.671875 C 16.640625 -18.222656 16.179688 -19.414062 15.265625 -20.25 C 14.347656 -21.082031 13.117188 -21.539062 11.578125 -21.625 C 10.890625 -21.644531 10.101562 -21.65625 9.21875 -21.65625 Z M 9.21875 -21.65625 "/></g></g></g><g fill="#ffffff" fill-opacity="1"><g transform="translate(150.300668, 101.763432)"><g><path d="M 4.625 0 L 0.90625 0 L 0.921875 -0.15625 L 1.109375 -0.15625 C 1.367188 -0.15625 1.59375 -0.242188 1.78125 -0.421875 C 1.96875 -0.609375 2.066406 -0.832031 2.078125 -1.09375 L 2.078125 -9.5625 C 2.078125 -9.820312 1.976562 -10.039062 1.78125 -10.21875 C 1.59375 -10.40625 1.367188 -10.5 1.109375 -10.5 L 0.921875 -10.5 L 0.90625 -10.65625 L 3.9375 -10.65625 C 4.988281 -10.65625 5.800781 -10.421875 6.375 -9.953125 C 6.957031 -9.492188 7.25 -8.878906 7.25 -8.109375 C 7.25 -7.503906 7.082031 -7 6.75 -6.59375 C 6.425781 -6.195312 6.03125 -5.929688 5.5625 -5.796875 C 6.363281 -5.671875 7 -5.335938 7.46875 -4.796875 C 7.9375 -4.265625 8.171875 -3.585938 8.171875 -2.765625 C 8.171875 -1.953125 7.859375 -1.285156 7.234375 -0.765625 C 6.609375 -0.253906 5.738281 0 4.625 0 Z M 3.078125 -0.546875 L 4.5625 -0.546875 C 4.570312 -0.546875 4.582031 -0.546875 4.59375 -0.546875 C 5.363281 -0.546875 5.960938 -0.753906 6.390625 -1.171875 C 6.816406 -1.597656 7.03125 -2.195312 7.03125 -2.96875 C 7.03125 -3.40625 6.957031 -3.785156 6.8125 -4.109375 C 6.664062 -4.441406 6.476562 -4.707031 6.25 -4.90625 C 5.664062 -5.382812 4.785156 -5.625 3.609375 -5.625 C 3.609375 -5.625 3.601562 -5.625 3.59375 -5.625 L 3.59375 -5.765625 C 3.601562 -5.765625 3.648438 -5.765625 3.734375 -5.765625 C 3.816406 -5.765625 3.941406 -5.773438 4.109375 -5.796875 C 4.273438 -5.816406 4.457031 -5.851562 4.65625 -5.90625 C 4.863281 -5.957031 5.046875 -6.035156 5.203125 -6.140625 C 5.367188 -6.253906 5.519531 -6.390625 5.65625 -6.546875 C 5.957031 -6.878906 6.109375 -7.378906 6.109375 -8.046875 C 6.109375 -8.710938 5.914062 -9.234375 5.53125 -9.609375 C 5.15625 -9.984375 4.601562 -10.171875 3.875 -10.171875 L 3.078125 -10.171875 Z M 3.078125 -0.546875 "/></g></g></g><g fill="#ffffff" fill-opacity="1"><g transform="translate(159.222637, 101.763432)"><g><path d="M 10.125 -8.984375 L 9.890625 -8.984375 C 9.617188 -8.984375 9.410156 -8.875 9.265625 -8.65625 C 9.203125 -8.5625 9.164062 -8.457031 9.15625 -8.34375 L 9.15625 -3.21875 C 9.15625 -2.15625 8.816406 -1.316406 8.140625 -0.703125 C 7.472656 -0.0859375 6.550781 0.21875 5.375 0.21875 C 4.195312 0.21875 3.265625 -0.0820312 2.578125 -0.6875 C 1.898438 -1.300781 1.5625 -2.140625 1.5625 -3.203125 L 1.5625 -8.328125 C 1.5625 -8.503906 1.488281 -8.65625 1.34375 -8.78125 C 1.207031 -8.914062 1.039062 -8.984375 0.84375 -8.984375 L 0.609375 -8.984375 L 0.609375 -9.125 L 3.5 -9.125 L 3.5 -8.984375 L 3.265625 -8.984375 C 3.066406 -8.984375 2.894531 -8.914062 2.75 -8.78125 C 2.613281 -8.65625 2.546875 -8.503906 2.546875 -8.328125 L 2.546875 -3.375 C 2.546875 -2.394531 2.796875 -1.617188 3.296875 -1.046875 C 3.796875 -0.484375 4.503906 -0.203125 5.421875 -0.203125 C 6.335938 -0.203125 7.070312 -0.46875 7.625 -1 C 8.1875 -1.539062 8.46875 -2.28125 8.46875 -3.21875 L 8.46875 -8.328125 C 8.457031 -8.515625 8.378906 -8.671875 8.234375 -8.796875 C 8.097656 -8.921875 7.929688 -8.984375 7.734375 -8.984375 L 7.5 -8.984375 L 7.5 -9.125 L 10.125 -9.125 Z M 10.125 -8.984375 "/></g></g></g><g fill="#ffffff" fill-opacity="1"><g transform="translate(169.880275, 101.763432)"><g><path d="M 1.046875 -0.15625 C 1.328125 -0.15625 1.566406 -0.234375 1.765625 -0.390625 C 1.960938 -0.554688 2.0625 -0.75 2.0625 -0.96875 L 2.0625 -8.15625 C 2.0625 -8.375 1.960938 -8.566406 1.765625 -8.734375 C 1.566406 -8.898438 1.320312 -8.984375 1.03125 -8.984375 L 0.84375 -8.984375 L 0.84375 -9.125 L 4.28125 -9.125 L 4.28125 -8.984375 L 4.078125 -8.984375 C 3.804688 -8.984375 3.570312 -8.90625 3.375 -8.75 C 3.175781 -8.59375 3.066406 -8.40625 3.046875 -8.1875 L 3.046875 -0.953125 C 3.054688 -0.734375 3.160156 -0.546875 3.359375 -0.390625 C 3.566406 -0.234375 3.804688 -0.15625 4.078125 -0.15625 L 4.28125 -0.15625 L 4.296875 0 L 0.84375 0 L 0.84375 -0.15625 Z M 1.046875 -0.15625 "/></g></g></g><g fill="#ffffff" fill-opacity="1"><g transform="translate(174.995938, 101.763432)"><g><path d="M 1.046875 -0.15625 C 1.296875 -0.15625 1.503906 -0.234375 1.671875 -0.390625 C 1.835938 -0.546875 1.925781 -0.734375 1.9375 -0.953125 L 1.9375 -8.15625 C 1.925781 -8.375 1.832031 -8.566406 1.65625 -8.734375 C 1.476562 -8.898438 1.265625 -8.984375 1.015625 -8.984375 L 0.84375 -8.984375 L 0.84375 -9.125 L 3.984375 -9.125 L 3.984375 -8.984375 L 3.796875 -8.984375 C 3.554688 -8.984375 3.347656 -8.898438 3.171875 -8.734375 C 2.992188 -8.566406 2.90625 -8.375 2.90625 -8.15625 L 2.90625 -0.46875 L 5.28125 -0.46875 C 5.75 -0.46875 6.144531 -0.546875 6.46875 -0.703125 C 6.789062 -0.867188 7.035156 -1.0625 7.203125 -1.28125 C 7.367188 -1.507812 7.535156 -1.804688 7.703125 -2.171875 L 7.859375 -2.171875 L 7.015625 0 L 0.84375 0 L 0.84375 -0.15625 Z M 1.046875 -0.15625 "/></g></g></g><g fill="#ffffff" fill-opacity="1"><g transform="translate(183.156639, 101.763432)"><g><path d="M 10.8125 -4.5625 C 10.8125 -3.15625 10.367188 -2.039062 9.484375 -1.21875 C 8.609375 -0.40625 7.421875 0 5.921875 0 L 0.84375 0 L 0.84375 -0.15625 L 1.03125 -0.15625 C 1.28125 -0.15625 1.484375 -0.234375 1.640625 -0.390625 C 1.804688 -0.554688 1.894531 -0.75 1.90625 -0.96875 L 1.90625 -8.15625 C 1.894531 -8.394531 1.804688 -8.59375 1.640625 -8.75 C 1.472656 -8.90625 1.265625 -8.984375 1.015625 -8.984375 L 0.84375 -8.984375 L 0.84375 -9.125 L 5.921875 -9.125 C 6.910156 -9.125 7.773438 -8.941406 8.515625 -8.578125 C 9.253906 -8.210938 9.820312 -7.6875 10.21875 -7 C 10.613281 -6.3125 10.8125 -5.5 10.8125 -4.5625 Z M 2.890625 -8.671875 L 2.890625 -0.453125 L 5.921875 -0.453125 C 7.085938 -0.453125 8.007812 -0.816406 8.6875 -1.546875 C 9.363281 -2.285156 9.703125 -3.289062 9.703125 -4.5625 C 9.703125 -5.832031 9.363281 -6.832031 8.6875 -7.5625 C 8.007812 -8.300781 7.085938 -8.671875 5.921875 -8.671875 Z M 2.890625 -8.671875 "/></g></g></g><g fill="#ffffff" fill-opacity="1"><g transform="translate(194.727789, 101.763432)"><g/></g></g><g fill="#ffffff" fill-opacity="1"><g transform="translate(198.534084, 101.763432)"><g><path d="M 10.25 -10.5 L 10.03125 -10.5 C 9.726562 -10.5 9.441406 -10.414062 9.171875 -10.25 C 8.898438 -10.082031 8.675781 -9.875 8.5 -9.625 L 5.5 -4.75 L 5.5 -1.109375 C 5.5 -0.847656 5.59375 -0.625 5.78125 -0.4375 C 5.96875 -0.25 6.195312 -0.15625 6.46875 -0.15625 L 6.65625 -0.15625 L 6.65625 0 L 3.328125 0 L 3.328125 -0.15625 L 3.53125 -0.15625 C 3.789062 -0.15625 4.015625 -0.242188 4.203125 -0.421875 C 4.390625 -0.609375 4.488281 -0.832031 4.5 -1.09375 L 4.5 -4.765625 L 1.59375 -9.625 C 1.445312 -9.863281 1.234375 -10.066406 0.953125 -10.234375 C 0.671875 -10.410156 0.378906 -10.5 0.078125 -10.5 L -0.140625 -10.5 L -0.140625 -10.65625 L 3.609375 -10.65625 L 3.609375 -10.5 L 3.40625 -10.5 C 3.1875 -10.5 3.015625 -10.398438 2.890625 -10.203125 C 2.828125 -10.085938 2.796875 -9.972656 2.796875 -9.859375 C 2.796875 -9.753906 2.820312 -9.65625 2.875 -9.5625 L 5.15625 -5.296875 L 7.59375 -9.578125 C 7.644531 -9.671875 7.671875 -9.769531 7.671875 -9.875 C 7.671875 -9.976562 7.632812 -10.085938 7.5625 -10.203125 C 7.4375 -10.398438 7.265625 -10.5 7.046875 -10.5 L 6.859375 -10.5 L 6.859375 -10.65625 L 10.25 -10.65625 Z M 10.25 -10.5 "/></g></g></g><g fill="#ffffff" fill-opacity="1"><g transform="translate(208.597938, 101.763432)"><g><path d="M 3.3125 -8.734375 C 4.09375 -9.140625 4.953125 -9.34375 5.890625 -9.34375 C 6.835938 -9.34375 7.703125 -9.140625 8.484375 -8.734375 C 9.265625 -8.335938 9.882812 -7.773438 10.34375 -7.046875 C 10.800781 -6.316406 11.03125 -5.488281 11.03125 -4.5625 C 11.03125 -3.644531 10.800781 -2.816406 10.34375 -2.078125 C 9.882812 -1.347656 9.265625 -0.78125 8.484375 -0.375 C 7.703125 0.0195312 6.898438 0.21875 6.078125 0.21875 C 5.253906 0.21875 4.523438 0.101562 3.890625 -0.125 C 3.265625 -0.363281 2.71875 -0.691406 2.25 -1.109375 C 1.789062 -1.523438 1.425781 -2.03125 1.15625 -2.625 C 0.894531 -3.226562 0.765625 -3.929688 0.765625 -4.734375 C 0.765625 -5.546875 0.992188 -6.316406 1.453125 -7.046875 C 1.910156 -7.773438 2.53125 -8.335938 3.3125 -8.734375 Z M 3.03125 -1.453125 C 3.800781 -0.648438 4.753906 -0.25 5.890625 -0.25 C 7.023438 -0.25 7.976562 -0.648438 8.75 -1.453125 C 9.519531 -2.253906 9.90625 -3.289062 9.90625 -4.5625 C 9.90625 -5.832031 9.519531 -6.867188 8.75 -7.671875 C 7.976562 -8.484375 7.023438 -8.890625 5.890625 -8.890625 C 4.753906 -8.890625 3.800781 -8.484375 3.03125 -7.671875 C 2.269531 -6.867188 1.890625 -5.832031 1.890625 -4.5625 C 1.890625 -3.289062 2.269531 -2.253906 3.03125 -1.453125 Z M 3.03125 -1.453125 "/></g></g></g><g fill="#ffffff" fill-opacity="1"><g transform="translate(220.382244, 101.763432)"><g><path d="M 10.125 -8.984375 L 9.890625 -8.984375 C 9.617188 -8.984375 9.410156 -8.875 9.265625 -8.65625 C 9.203125 -8.5625 9.164062 -8.457031 9.15625 -8.34375 L 9.15625 -3.21875 C 9.15625 -2.15625 8.816406 -1.316406 8.140625 -0.703125 C 7.472656 -0.0859375 6.550781 0.21875 5.375 0.21875 C 4.195312 0.21875 3.265625 -0.0820312 2.578125 -0.6875 C 1.898438 -1.300781 1.5625 -2.140625 1.5625 -3.203125 L 1.5625 -8.328125 C 1.5625 -8.503906 1.488281 -8.65625 1.34375 -8.78125 C 1.207031 -8.914062 1.039062 -8.984375 0.84375 -8.984375 L 0.609375 -8.984375 L 0.609375 -9.125 L 3.5 -9.125 L 3.5 -8.984375 L 3.265625 -8.984375 C 3.066406 -8.984375 2.894531 -8.914062 2.75 -8.78125 C 2.613281 -8.65625 2.546875 -8.503906 2.546875 -8.328125 L 2.546875 -3.375 C 2.546875 -2.394531 2.796875 -1.617188 3.296875 -1.046875 C 3.796875 -0.484375 4.503906 -0.203125 5.421875 -0.203125 C 6.335938 -0.203125 7.070312 -0.46875 7.625 -1 C 8.1875 -1.539062 8.46875 -2.28125 8.46875 -3.21875 L 8.46875 -8.328125 C 8.457031 -8.515625 8.378906 -8.671875 8.234375 -8.796875 C 8.097656 -8.921875 7.929688 -8.984375 7.734375 -8.984375 L 7.5 -8.984375 L 7.5 -9.125 L 10.125 -9.125 Z M 10.125 -8.984375 "/></g></g></g><g fill="#ffffff" fill-opacity="1"><g transform="translate(231.039882, 101.763432)"><g><path d="M 3.6875 -8.65625 L 2.875 -8.65625 L 2.875 -0.96875 C 2.882812 -0.65625 3.023438 -0.421875 3.296875 -0.265625 C 3.429688 -0.191406 3.582031 -0.15625 3.75 -0.15625 L 3.9375 -0.15625 L 3.953125 0 L 0.84375 0 L 0.84375 -0.15625 L 1.046875 -0.15625 C 1.285156 -0.15625 1.488281 -0.234375 1.65625 -0.390625 C 1.820312 -0.546875 1.90625 -0.734375 1.90625 -0.953125 L 1.90625 -8.1875 C 1.90625 -8.40625 1.820312 -8.59375 1.65625 -8.75 C 1.488281 -8.90625 1.285156 -8.984375 1.046875 -8.984375 L 0.84375 -8.984375 L 0.84375 -9.125 L 4.65625 -9.125 C 5.613281 -9.125 6.367188 -8.90625 6.921875 -8.46875 C 7.472656 -8.039062 7.75 -7.46875 7.75 -6.75 C 7.75 -6.039062 7.523438 -5.445312 7.078125 -4.96875 C 6.628906 -4.5 6.0625 -4.226562 5.375 -4.15625 C 5.695312 -4.007812 6.085938 -3.613281 6.546875 -2.96875 C 6.535156 -2.96875 6.707031 -2.742188 7.0625 -2.296875 C 7.425781 -1.847656 7.71875 -1.5 7.9375 -1.25 C 8.15625 -1 8.335938 -0.8125 8.484375 -0.6875 C 8.859375 -0.332031 9.285156 -0.15625 9.765625 -0.15625 L 9.765625 0 L 9.296875 0 C 8.492188 0 7.863281 -0.15625 7.40625 -0.46875 C 7.0625 -0.707031 6.75 -1 6.46875 -1.34375 C 6.40625 -1.425781 6.144531 -1.78125 5.6875 -2.40625 C 5.238281 -3.039062 5 -3.378906 4.96875 -3.421875 C 4.425781 -4.097656 3.914062 -4.4375 3.4375 -4.4375 L 3.4375 -4.59375 C 4.625 -4.59375 5.335938 -4.65625 5.578125 -4.78125 C 5.921875 -4.945312 6.148438 -5.128906 6.265625 -5.328125 C 6.523438 -5.734375 6.65625 -6.179688 6.65625 -6.671875 C 6.65625 -7.285156 6.472656 -7.757812 6.109375 -8.09375 C 5.742188 -8.425781 5.25 -8.609375 4.625 -8.640625 C 4.351562 -8.648438 4.039062 -8.65625 3.6875 -8.65625 Z M 3.6875 -8.65625 "/></g></g></g><g fill="#ffffff" fill-opacity="1"><g transform="translate(240.58608, 101.763432)"><g/></g></g><g fill="#ffffff" fill-opacity="1"><g transform="translate(244.392374, 101.763432)"><g><path d="M 4.625 0 L 0.90625 0 L 0.921875 -0.15625 L 1.109375 -0.15625 C 1.367188 -0.15625 1.59375 -0.242188 1.78125 -0.421875 C 1.96875 -0.609375 2.066406 -0.832031 2.078125 -1.09375 L 2.078125 -9.5625 C 2.078125 -9.820312 1.976562 -10.039062 1.78125 -10.21875 C 1.59375 -10.40625 1.367188 -10.5 1.109375 -10.5 L 0.921875 -10.5 L 0.90625 -10.65625 L 3.9375 -10.65625 C 4.988281 -10.65625 5.800781 -10.421875 6.375 -9.953125 C 6.957031 -9.492188 7.25 -8.878906 7.25 -8.109375 C 7.25 -7.503906 7.082031 -7 6.75 -6.59375 C 6.425781 -6.195312 6.03125 -5.929688 5.5625 -5.796875 C 6.363281 -5.671875 7 -5.335938 7.46875 -4.796875 C 7.9375 -4.265625 8.171875 -3.585938 8.171875 -2.765625 C 8.171875 -1.953125 7.859375 -1.285156 7.234375 -0.765625 C 6.609375 -0.253906 5.738281 0 4.625 0 Z M 3.078125 -0.546875 L 4.5625 -0.546875 C 4.570312 -0.546875 4.582031 -0.546875 4.59375 -0.546875 C 5.363281 -0.546875 5.960938 -0.753906 6.390625 -1.171875 C 6.816406 -1.597656 7.03125 -2.195312 7.03125 -2.96875 C 7.03125 -3.40625 6.957031 -3.785156 6.8125 -4.109375 C 6.664062 -4.441406 6.476562 -4.707031 6.25 -4.90625 C 5.664062 -5.382812 4.785156 -5.625 3.609375 -5.625 C 3.609375 -5.625 3.601562 -5.625 3.59375 -5.625 L 3.59375 -5.765625 C 3.601562 -5.765625 3.648438 -5.765625 3.734375 -5.765625 C 3.816406 -5.765625 3.941406 -5.773438 4.109375 -5.796875 C 4.273438 -5.816406 4.457031 -5.851562 4.65625 -5.90625 C 4.863281 -5.957031 5.046875 -6.035156 5.203125 -6.140625 C 5.367188 -6.253906 5.519531 -6.390625 5.65625 -6.546875 C 5.957031 -6.878906 6.109375 -7.378906 6.109375 -8.046875 C 6.109375 -8.710938 5.914062 -9.234375 5.53125 -9.609375 C 5.15625 -9.984375 4.601562 -10.171875 3.875 -10.171875 L 3.078125 -10.171875 Z M 3.078125 -0.546875 "/></g></g></g><g fill="#ffffff" fill-opacity="1"><g transform="translate(253.314343, 101.763432)"><g><path d="M 3.6875 -8.65625 L 2.875 -8.65625 L 2.875 -0.96875 C 2.882812 -0.65625 3.023438 -0.421875 3.296875 -0.265625 C 3.429688 -0.191406 3.582031 -0.15625 3.75 -0.15625 L 3.9375 -0.15625 L 3.953125 0 L 0.84375 0 L 0.84375 -0.15625 L 1.046875 -0.15625 C 1.285156 -0.15625 1.488281 -0.234375 1.65625 -0.390625 C 1.820312 -0.546875 1.90625 -0.734375 1.90625 -0.953125 L 1.90625 -8.1875 C 1.90625 -8.40625 1.820312 -8.59375 1.65625 -8.75 C 1.488281 -8.90625 1.285156 -8.984375 1.046875 -8.984375 L 0.84375 -8.984375 L 0.84375 -9.125 L 4.65625 -9.125 C 5.613281 -9.125 6.367188 -8.90625 6.921875 -8.46875 C 7.472656 -8.039062 7.75 -7.46875 7.75 -6.75 C 7.75 -6.039062 7.523438 -5.445312 7.078125 -4.96875 C 6.628906 -4.5 6.0625 -4.226562 5.375 -4.15625 C 5.695312 -4.007812 6.085938 -3.613281 6.546875 -2.96875 C 6.535156 -2.96875 6.707031 -2.742188 7.0625 -2.296875 C 7.425781 -1.847656 7.71875 -1.5 7.9375 -1.25 C 8.15625 -1 8.335938 -0.8125 8.484375 -0.6875 C 8.859375 -0.332031 9.285156 -0.15625 9.765625 -0.15625 L 9.765625 0 L 9.296875 0 C 8.492188 0 7.863281 -0.15625 7.40625 -0.46875 C 7.0625 -0.707031 6.75 -1 6.46875 -1.34375 C 6.40625 -1.425781 6.144531 -1.78125 5.6875 -2.40625 C 5.238281 -3.039062 5 -3.378906 4.96875 -3.421875 C 4.425781 -4.097656 3.914062 -4.4375 3.4375 -4.4375 L 3.4375 -4.59375 C 4.625 -4.59375 5.335938 -4.65625 5.578125 -4.78125 C 5.921875 -4.945312 6.148438 -5.128906 6.265625 -5.328125 C 6.523438 -5.734375 6.65625 -6.179688 6.65625 -6.671875 C 6.65625 -7.285156 6.472656 -7.757812 6.109375 -8.09375 C 5.742188 -8.425781 5.25 -8.609375 4.625 -8.640625 C 4.351562 -8.648438 4.039062 -8.65625 3.6875 -8.65625 Z M 3.6875 -8.65625 "/></g></g></g><g fill="#ffffff" fill-opacity="1"><g transform="translate(262.86054, 101.763432)"><g><path d="M 10.046875 -0.15625 L 10.171875 -0.15625 L 10.171875 0 L 7.046875 0 L 7.046875 -0.15625 L 7.171875 -0.15625 C 7.359375 -0.15625 7.503906 -0.21875 7.609375 -0.34375 C 7.710938 -0.476562 7.765625 -0.601562 7.765625 -0.71875 C 7.765625 -0.832031 7.742188 -0.945312 7.703125 -1.0625 L 6.859375 -3.09375 L 3.015625 -3.09375 L 2.171875 -1.109375 C 2.117188 -0.972656 2.09375 -0.847656 2.09375 -0.734375 C 2.09375 -0.617188 2.144531 -0.492188 2.25 -0.359375 C 2.351562 -0.222656 2.503906 -0.15625 2.703125 -0.15625 L 2.828125 -0.15625 L 2.828125 0 L -0.078125 0 L -0.078125 -0.15625 L 0.046875 -0.15625 C 0.253906 -0.15625 0.46875 -0.226562 0.6875 -0.375 C 0.90625 -0.519531 1.085938 -0.738281 1.234375 -1.03125 C 3.453125 -5.78125 4.609375 -8.265625 4.703125 -8.484375 C 4.878906 -8.910156 4.96875 -9.195312 4.96875 -9.34375 L 5.109375 -9.34375 L 8.875 -1.03125 C 9.164062 -0.445312 9.554688 -0.15625 10.046875 -0.15625 Z M 3.21875 -3.546875 L 6.6875 -3.546875 L 4.96875 -7.71875 Z M 3.21875 -3.546875 "/></g></g></g><g fill="#ffffff" fill-opacity="1"><g transform="translate(272.95485, 101.763432)"><g><path d="M 11.0625 -8.984375 C 10.84375 -8.984375 10.648438 -8.90625 10.484375 -8.75 C 10.328125 -8.601562 10.242188 -8.425781 10.234375 -8.21875 L 10.234375 -1.734375 C 10.234375 -1.148438 10.265625 -0.59375 10.328125 -0.0625 L 10.359375 0.21875 L 10.234375 0.21875 L 2.3125 -7.296875 L 2.3125 -0.9375 C 2.3125 -0.71875 2.390625 -0.53125 2.546875 -0.375 C 2.710938 -0.226562 2.914062 -0.15625 3.15625 -0.15625 L 3.40625 -0.15625 L 3.40625 0 L 0.53125 0 L 0.53125 -0.15625 L 0.796875 -0.15625 C 1.023438 -0.15625 1.21875 -0.226562 1.375 -0.375 C 1.539062 -0.53125 1.625 -0.71875 1.625 -0.9375 L 1.625 -7.453125 C 1.625 -8.078125 1.585938 -8.628906 1.515625 -9.109375 L 1.484375 -9.359375 L 1.65625 -9.34375 L 9.5625 -1.90625 L 9.5625 -8.21875 C 9.539062 -8.425781 9.445312 -8.601562 9.28125 -8.75 C 9.125 -8.90625 8.929688 -8.984375 8.703125 -8.984375 L 8.453125 -8.984375 L 8.453125 -9.125 L 11.328125 -9.125 L 11.328125 -8.984375 Z M 11.0625 -8.984375 "/></g></g></g><g fill="#ffffff" fill-opacity="1"><g transform="translate(284.815273, 101.763432)"><g><path d="M 10.8125 -4.5625 C 10.8125 -3.15625 10.367188 -2.039062 9.484375 -1.21875 C 8.609375 -0.40625 7.421875 0 5.921875 0 L 0.84375 0 L 0.84375 -0.15625 L 1.03125 -0.15625 C 1.28125 -0.15625 1.484375 -0.234375 1.640625 -0.390625 C 1.804688 -0.554688 1.894531 -0.75 1.90625 -0.96875 L 1.90625 -8.15625 C 1.894531 -8.394531 1.804688 -8.59375 1.640625 -8.75 C 1.472656 -8.90625 1.265625 -8.984375 1.015625 -8.984375 L 0.84375 -8.984375 L 0.84375 -9.125 L 5.921875 -9.125 C 6.910156 -9.125 7.773438 -8.941406 8.515625 -8.578125 C 9.253906 -8.210938 9.820312 -7.6875 10.21875 -7 C 10.613281 -6.3125 10.8125 -5.5 10.8125 -4.5625 Z M 2.890625 -8.671875 L 2.890625 -0.453125 L 5.921875 -0.453125 C 7.085938 -0.453125 8.007812 -0.816406 8.6875 -1.546875 C 9.363281 -2.285156 9.703125 -3.289062 9.703125 -4.5625 C 9.703125 -5.832031 9.363281 -6.832031 8.6875 -7.5625 C 8.007812 -8.300781 7.085938 -8.671875 5.921875 -8.671875 Z M 2.890625 -8.671875 "/></g></g></g></svg>